<?xml version="1.0" encoding="utf-8" standalone="no"?>
<!DOCTYPE svg PUBLIC "-//W3C//DTD SVG 1.1//EN"
  "http://www.w3.org/Graphics/SVG/1.1/DTD/svg11.dtd">
<svg xmlns:xlink="http://www.w3.org/1999/xlink" width="712.526875pt" height="208.28125pt" viewBox="0 0 712.526875 208.28125" xmlns="http://www.w3.org/2000/svg" version="1.1">
 <metadata>
  <rdf:RDF xmlns:dc="http://purl.org/dc/elements/1.1/" xmlns:cc="http://creativecommons.org/ns#" xmlns:rdf="http://www.w3.org/1999/02/22-rdf-syntax-ns#">
   <cc:Work>
    <dc:type rdf:resource="http://purl.org/dc/dcmitype/StillImage"/>
    <dc:date>2025-12-07T14:48:58.838182</dc:date>
    <dc:format>image/svg+xml</dc:format>
    <dc:creator>
     <cc:Agent>
      <dc:title>Matplotlib v3.10.0, https://matplotlib.org/</dc:title>
     </cc:Agent>
    </dc:creator>
   </cc:Work>
  </rdf:RDF>
 </metadata>
 <defs>
  <style type="text/css">*{stroke-linejoin: round; stroke-linecap: butt}</style>
 </defs>
 <g id="figure_1">
  <g id="patch_1">
   <path d="M 0 208.28125 
L 712.526875 208.28125 
L 712.526875 0 
L 0 0 
z
" style="fill: #ffffff"/>
  </g>
  <g id="axes_1">
   <g id="patch_2">
    <path d="M 45.421875 171.915625 
L 705.326875 171.915625 
L 705.326875 21.5325 
L 45.421875 21.5325 
z
" style="fill: #ffffff"/>
   </g>
   <g id="matplotlib.axis_1">
    <g id="xtick_1">
     <g id="line2d_1">
      <path d="M 75.417557 171.915625 
L 75.417557 21.5325 
" clip-path="url(#p5c7b6acaa6)" style="fill: none; stroke: #b0b0b0; stroke-opacity: 0.3; stroke-width: 0.8; stroke-linecap: square"/>
     </g>
     <g id="line2d_2">
      <defs>
       <path id="m685b2aad99" d="M 0 0 
L 0 3.5 
" style="stroke: #000000; stroke-width: 0.8"/>
      </defs>
      <g>
       <use xlink:href="#m685b2aad99" x="75.417557" y="171.915625" style="stroke: #000000; stroke-width: 0.8"/>
      </g>
     </g>
     <g id="text_1">
      <!-- 0 -->
      <g transform="translate(72.917557 185.859375) scale(0.1 -0.1)">
       <defs>
        <path id="TimesNewRomanPSMT-30" d="M 231 2094 
Q 231 2819 450 3342 
Q 669 3866 1031 4122 
Q 1313 4325 1613 4325 
Q 2100 4325 2488 3828 
Q 2972 3213 2972 2159 
Q 2972 1422 2759 906 
Q 2547 391 2217 158 
Q 1888 -75 1581 -75 
Q 975 -75 572 641 
Q 231 1244 231 2094 
z
M 844 2016 
Q 844 1141 1059 588 
Q 1238 122 1591 122 
Q 1759 122 1940 273 
Q 2122 425 2216 781 
Q 2359 1319 2359 2297 
Q 2359 3022 2209 3506 
Q 2097 3866 1919 4016 
Q 1791 4119 1609 4119 
Q 1397 4119 1231 3928 
Q 1006 3669 925 3112 
Q 844 2556 844 2016 
z
" transform="scale(0.015625)"/>
       </defs>
       <use xlink:href="#TimesNewRomanPSMT-30"/>
      </g>
     </g>
    </g>
    <g id="xtick_2">
     <g id="line2d_3">
      <path d="M 195.520387 171.915625 
L 195.520387 21.5325 
" clip-path="url(#p5c7b6acaa6)" style="fill: none; stroke: #b0b0b0; stroke-opacity: 0.3; stroke-width: 0.8; stroke-linecap: square"/>
     </g>
     <g id="line2d_4">
      <g>
       <use xlink:href="#m685b2aad99" x="195.520387" y="171.915625" style="stroke: #000000; stroke-width: 0.8"/>
      </g>
     </g>
     <g id="text_2">
      <!-- 2 -->
      <g transform="translate(193.020387 185.859375) scale(0.1 -0.1)">
       <defs>
        <path id="TimesNewRomanPSMT-32" d="M 2934 816 
L 2638 0 
L 138 0 
L 138 116 
Q 1241 1122 1691 1759 
Q 2141 2397 2141 2925 
Q 2141 3328 1894 3587 
Q 1647 3847 1303 3847 
Q 991 3847 742 3664 
Q 494 3481 375 3128 
L 259 3128 
Q 338 3706 661 4015 
Q 984 4325 1469 4325 
Q 1984 4325 2329 3994 
Q 2675 3663 2675 3213 
Q 2675 2891 2525 2569 
Q 2294 2063 1775 1497 
Q 997 647 803 472 
L 1909 472 
Q 2247 472 2383 497 
Q 2519 522 2628 598 
Q 2738 675 2819 816 
L 2934 816 
z
" transform="scale(0.015625)"/>
       </defs>
       <use xlink:href="#TimesNewRomanPSMT-32"/>
      </g>
     </g>
    </g>
    <g id="xtick_3">
     <g id="line2d_5">
      <path d="M 315.623217 171.915625 
L 315.623217 21.5325 
" clip-path="url(#p5c7b6acaa6)" style="fill: none; stroke: #b0b0b0; stroke-opacity: 0.3; stroke-width: 0.8; stroke-linecap: square"/>
     </g>
     <g id="line2d_6">
      <g>
       <use xlink:href="#m685b2aad99" x="315.623217" y="171.915625" style="stroke: #000000; stroke-width: 0.8"/>
      </g>
     </g>
     <g id="text_3">
      <!-- 4 -->
      <g transform="translate(313.123217 185.859375) scale(0.1 -0.1)">
       <defs>
        <path id="TimesNewRomanPSMT-34" d="M 2978 1563 
L 2978 1119 
L 2409 1119 
L 2409 0 
L 1894 0 
L 1894 1119 
L 100 1119 
L 100 1519 
L 2066 4325 
L 2409 4325 
L 2409 1563 
L 2978 1563 
z
M 1894 1563 
L 1894 3666 
L 406 1563 
L 1894 1563 
z
" transform="scale(0.015625)"/>
       </defs>
       <use xlink:href="#TimesNewRomanPSMT-34"/>
      </g>
     </g>
    </g>
    <g id="xtick_4">
     <g id="line2d_7">
      <path d="M 435.726047 171.915625 
L 435.726047 21.5325 
" clip-path="url(#p5c7b6acaa6)" style="fill: none; stroke: #b0b0b0; stroke-opacity: 0.3; stroke-width: 0.8; stroke-linecap: square"/>
     </g>
     <g id="line2d_8">
      <g>
       <use xlink:href="#m685b2aad99" x="435.726047" y="171.915625" style="stroke: #000000; stroke-width: 0.8"/>
      </g>
     </g>
     <g id="text_4">
      <!-- 6 -->
      <g transform="translate(433.226047 185.859375) scale(0.1 -0.1)">
       <defs>
        <path id="TimesNewRomanPSMT-36" d="M 2869 4325 
L 2869 4209 
Q 2456 4169 2195 4045 
Q 1934 3922 1679 3669 
Q 1425 3416 1258 3105 
Q 1091 2794 978 2366 
Q 1428 2675 1881 2675 
Q 2316 2675 2634 2325 
Q 2953 1975 2953 1425 
Q 2953 894 2631 456 
Q 2244 -75 1606 -75 
Q 1172 -75 869 213 
Q 275 772 275 1663 
Q 275 2231 503 2743 
Q 731 3256 1154 3653 
Q 1578 4050 1965 4187 
Q 2353 4325 2688 4325 
L 2869 4325 
z
M 925 2138 
Q 869 1716 869 1456 
Q 869 1156 980 804 
Q 1091 453 1309 247 
Q 1469 100 1697 100 
Q 1969 100 2183 356 
Q 2397 613 2397 1088 
Q 2397 1622 2184 2012 
Q 1972 2403 1581 2403 
Q 1463 2403 1327 2353 
Q 1191 2303 925 2138 
z
" transform="scale(0.015625)"/>
       </defs>
       <use xlink:href="#TimesNewRomanPSMT-36"/>
      </g>
     </g>
    </g>
    <g id="xtick_5">
     <g id="line2d_9">
      <path d="M 555.828877 171.915625 
L 555.828877 21.5325 
" clip-path="url(#p5c7b6acaa6)" style="fill: none; stroke: #b0b0b0; stroke-opacity: 0.3; stroke-width: 0.8; stroke-linecap: square"/>
     </g>
     <g id="line2d_10">
      <g>
       <use xlink:href="#m685b2aad99" x="555.828877" y="171.915625" style="stroke: #000000; stroke-width: 0.8"/>
      </g>
     </g>
     <g id="text_5">
      <!-- 8 -->
      <g transform="translate(553.328877 185.859375) scale(0.1 -0.1)">
       <defs>
        <path id="TimesNewRomanPSMT-38" d="M 1228 2134 
Q 725 2547 579 2797 
Q 434 3047 434 3316 
Q 434 3728 753 4026 
Q 1072 4325 1600 4325 
Q 2113 4325 2425 4047 
Q 2738 3769 2738 3413 
Q 2738 3175 2569 2928 
Q 2400 2681 1866 2347 
Q 2416 1922 2594 1678 
Q 2831 1359 2831 1006 
Q 2831 559 2490 242 
Q 2150 -75 1597 -75 
Q 994 -75 656 303 
Q 388 606 388 966 
Q 388 1247 577 1523 
Q 766 1800 1228 2134 
z
M 1719 2469 
Q 2094 2806 2194 3001 
Q 2294 3197 2294 3444 
Q 2294 3772 2109 3958 
Q 1925 4144 1606 4144 
Q 1288 4144 1088 3959 
Q 888 3775 888 3528 
Q 888 3366 970 3203 
Q 1053 3041 1206 2894 
L 1719 2469 
z
M 1375 2016 
Q 1116 1797 991 1539 
Q 866 1281 866 981 
Q 866 578 1086 336 
Q 1306 94 1647 94 
Q 1984 94 2187 284 
Q 2391 475 2391 747 
Q 2391 972 2272 1150 
Q 2050 1481 1375 2016 
z
" transform="scale(0.015625)"/>
       </defs>
       <use xlink:href="#TimesNewRomanPSMT-38"/>
      </g>
     </g>
    </g>
    <g id="xtick_6">
     <g id="line2d_11">
      <path d="M 675.931707 171.915625 
L 675.931707 21.5325 
" clip-path="url(#p5c7b6acaa6)" style="fill: none; stroke: #b0b0b0; stroke-opacity: 0.3; stroke-width: 0.8; stroke-linecap: square"/>
     </g>
     <g id="line2d_12">
      <g>
       <use xlink:href="#m685b2aad99" x="675.931707" y="171.915625" style="stroke: #000000; stroke-width: 0.8"/>
      </g>
     </g>
     <g id="text_6">
      <!-- 10 -->
      <g transform="translate(670.931707 185.859375) scale(0.1 -0.1)">
       <defs>
        <path id="TimesNewRomanPSMT-31" d="M 750 3822 
L 1781 4325 
L 1884 4325 
L 1884 747 
Q 1884 391 1914 303 
Q 1944 216 2037 169 
Q 2131 122 2419 116 
L 2419 0 
L 825 0 
L 825 116 
Q 1125 122 1212 167 
Q 1300 213 1334 289 
Q 1369 366 1369 747 
L 1369 3034 
Q 1369 3497 1338 3628 
Q 1316 3728 1258 3775 
Q 1200 3822 1119 3822 
Q 1003 3822 797 3725 
L 750 3822 
z
" transform="scale(0.015625)"/>
       </defs>
       <use xlink:href="#TimesNewRomanPSMT-31"/>
       <use xlink:href="#TimesNewRomanPSMT-30" transform="translate(50 0)"/>
      </g>
     </g>
    </g>
    <g id="text_7">
     <!-- Time (s) -->
     <g transform="translate(358.472031 198.942188) scale(0.1 -0.1)">
      <defs>
       <path id="TimesNewRomanPSMT-54" d="M 3703 4238 
L 3750 3244 
L 3631 3244 
Q 3597 3506 3538 3619 
Q 3441 3800 3280 3886 
Q 3119 3972 2856 3972 
L 2259 3972 
L 2259 734 
Q 2259 344 2344 247 
Q 2463 116 2709 116 
L 2856 116 
L 2856 0 
L 1059 0 
L 1059 116 
L 1209 116 
Q 1478 116 1591 278 
Q 1659 378 1659 734 
L 1659 3972 
L 1150 3972 
Q 853 3972 728 3928 
Q 566 3869 450 3700 
Q 334 3531 313 3244 
L 194 3244 
L 244 4238 
L 3703 4238 
z
" transform="scale(0.015625)"/>
       <path id="TimesNewRomanPSMT-69" d="M 928 4444 
Q 1059 4444 1151 4351 
Q 1244 4259 1244 4128 
Q 1244 3997 1151 3903 
Q 1059 3809 928 3809 
Q 797 3809 703 3903 
Q 609 3997 609 4128 
Q 609 4259 701 4351 
Q 794 4444 928 4444 
z
M 1188 2947 
L 1188 647 
Q 1188 378 1227 289 
Q 1266 200 1342 156 
Q 1419 113 1622 113 
L 1622 0 
L 231 0 
L 231 113 
Q 441 113 512 153 
Q 584 194 626 287 
Q 669 381 669 647 
L 669 1750 
Q 669 2216 641 2353 
Q 619 2453 572 2492 
Q 525 2531 444 2531 
Q 356 2531 231 2484 
L 188 2597 
L 1050 2947 
L 1188 2947 
z
" transform="scale(0.015625)"/>
       <path id="TimesNewRomanPSMT-6d" d="M 1050 2338 
Q 1363 2650 1419 2697 
Q 1559 2816 1721 2881 
Q 1884 2947 2044 2947 
Q 2313 2947 2506 2790 
Q 2700 2634 2766 2338 
Q 3088 2713 3309 2830 
Q 3531 2947 3766 2947 
Q 3994 2947 4170 2830 
Q 4347 2713 4450 2447 
Q 4519 2266 4519 1878 
L 4519 647 
Q 4519 378 4559 278 
Q 4591 209 4675 161 
Q 4759 113 4950 113 
L 4950 0 
L 3538 0 
L 3538 113 
L 3597 113 
Q 3781 113 3884 184 
Q 3956 234 3988 344 
Q 4000 397 4000 647 
L 4000 1878 
Q 4000 2228 3916 2372 
Q 3794 2572 3525 2572 
Q 3359 2572 3192 2489 
Q 3025 2406 2788 2181 
L 2781 2147 
L 2788 2013 
L 2788 647 
Q 2788 353 2820 281 
Q 2853 209 2943 161 
Q 3034 113 3253 113 
L 3253 0 
L 1806 0 
L 1806 113 
Q 2044 113 2133 169 
Q 2222 225 2256 338 
Q 2272 391 2272 647 
L 2272 1878 
Q 2272 2228 2169 2381 
Q 2031 2581 1784 2581 
Q 1616 2581 1450 2491 
Q 1191 2353 1050 2181 
L 1050 647 
Q 1050 366 1089 281 
Q 1128 197 1204 155 
Q 1281 113 1516 113 
L 1516 0 
L 100 0 
L 100 113 
Q 297 113 375 155 
Q 453 197 493 289 
Q 534 381 534 647 
L 534 1741 
Q 534 2213 506 2350 
Q 484 2453 437 2492 
Q 391 2531 309 2531 
Q 222 2531 100 2484 
L 53 2597 
L 916 2947 
L 1050 2947 
L 1050 2338 
z
" transform="scale(0.015625)"/>
       <path id="TimesNewRomanPSMT-65" d="M 681 1784 
Q 678 1147 991 784 
Q 1303 422 1725 422 
Q 2006 422 2214 576 
Q 2422 731 2563 1106 
L 2659 1044 
Q 2594 616 2278 264 
Q 1963 -88 1488 -88 
Q 972 -88 605 314 
Q 238 716 238 1394 
Q 238 2128 614 2539 
Q 991 2950 1559 2950 
Q 2041 2950 2350 2633 
Q 2659 2316 2659 1784 
L 681 1784 
z
M 681 1966 
L 2006 1966 
Q 1991 2241 1941 2353 
Q 1863 2528 1708 2628 
Q 1553 2728 1384 2728 
Q 1125 2728 920 2526 
Q 716 2325 681 1966 
z
" transform="scale(0.015625)"/>
       <path id="TimesNewRomanPSMT-20" transform="scale(0.015625)"/>
       <path id="TimesNewRomanPSMT-28" d="M 1988 -1253 
L 1988 -1369 
Q 1516 -1131 1200 -813 
Q 750 -359 506 256 
Q 263 872 263 1534 
Q 263 2503 741 3301 
Q 1219 4100 1988 4444 
L 1988 4313 
Q 1603 4100 1356 3731 
Q 1109 3363 987 2797 
Q 866 2231 866 1616 
Q 866 947 969 400 
Q 1050 -31 1165 -292 
Q 1281 -553 1476 -793 
Q 1672 -1034 1988 -1253 
z
" transform="scale(0.015625)"/>
       <path id="TimesNewRomanPSMT-73" d="M 2050 2947 
L 2050 1972 
L 1947 1972 
Q 1828 2431 1642 2597 
Q 1456 2763 1169 2763 
Q 950 2763 815 2647 
Q 681 2531 681 2391 
Q 681 2216 781 2091 
Q 878 1963 1175 1819 
L 1631 1597 
Q 2266 1288 2266 781 
Q 2266 391 1970 151 
Q 1675 -88 1309 -88 
Q 1047 -88 709 6 
Q 606 38 541 38 
Q 469 38 428 -44 
L 325 -44 
L 325 978 
L 428 978 
Q 516 541 762 319 
Q 1009 97 1316 97 
Q 1531 97 1667 223 
Q 1803 350 1803 528 
Q 1803 744 1651 891 
Q 1500 1038 1047 1263 
Q 594 1488 453 1669 
Q 313 1847 313 2119 
Q 313 2472 555 2709 
Q 797 2947 1181 2947 
Q 1350 2947 1591 2875 
Q 1750 2828 1803 2828 
Q 1853 2828 1881 2850 
Q 1909 2872 1947 2947 
L 2050 2947 
z
" transform="scale(0.015625)"/>
       <path id="TimesNewRomanPSMT-29" d="M 144 4313 
L 144 4444 
Q 619 4209 934 3891 
Q 1381 3434 1625 2820 
Q 1869 2206 1869 1541 
Q 1869 572 1392 -226 
Q 916 -1025 144 -1369 
L 144 -1253 
Q 528 -1038 776 -670 
Q 1025 -303 1145 264 
Q 1266 831 1266 1447 
Q 1266 2113 1163 2663 
Q 1084 3094 967 3353 
Q 850 3613 656 3853 
Q 463 4094 144 4313 
z
" transform="scale(0.015625)"/>
      </defs>
      <use xlink:href="#TimesNewRomanPSMT-54"/>
      <use xlink:href="#TimesNewRomanPSMT-69" transform="translate(57.583984 0)"/>
      <use xlink:href="#TimesNewRomanPSMT-6d" transform="translate(85.367188 0)"/>
      <use xlink:href="#TimesNewRomanPSMT-65" transform="translate(163.150391 0)"/>
      <use xlink:href="#TimesNewRomanPSMT-20" transform="translate(207.535156 0)"/>
      <use xlink:href="#TimesNewRomanPSMT-28" transform="translate(232.535156 0)"/>
      <use xlink:href="#TimesNewRomanPSMT-73" transform="translate(265.835938 0)"/>
      <use xlink:href="#TimesNewRomanPSMT-29" transform="translate(304.751953 0)"/>
     </g>
    </g>
   </g>
   <g id="matplotlib.axis_2">
    <g id="ytick_1">
     <g id="line2d_13">
      <path d="M 45.421875 164.02411 
L 705.326875 164.02411 
" clip-path="url(#p5c7b6acaa6)" style="fill: none; stroke: #b0b0b0; stroke-opacity: 0.3; stroke-width: 0.8; stroke-linecap: square"/>
     </g>
     <g id="line2d_14">
      <defs>
       <path id="maf52aa1da5" d="M 0 0 
L -3.5 0 
" style="stroke: #000000; stroke-width: 0.8"/>
      </defs>
      <g>
       <use xlink:href="#maf52aa1da5" x="45.421875" y="164.02411" style="stroke: #000000; stroke-width: 0.8"/>
      </g>
     </g>
     <g id="text_8">
      <!-- −1.5 -->
      <g transform="translate(20.282812 167.495985) scale(0.1 -0.1)">
       <defs>
        <path id="TimesNewRomanPSMT-2212" d="M 3484 2000 
L 116 2000 
L 116 2256 
L 3484 2256 
L 3484 2000 
z
" transform="scale(0.015625)"/>
        <path id="TimesNewRomanPSMT-2e" d="M 800 606 
Q 947 606 1047 504 
Q 1147 403 1147 259 
Q 1147 116 1045 14 
Q 944 -88 800 -88 
Q 656 -88 554 14 
Q 453 116 453 259 
Q 453 406 554 506 
Q 656 606 800 606 
z
" transform="scale(0.015625)"/>
        <path id="TimesNewRomanPSMT-35" d="M 2778 4238 
L 2534 3706 
L 1259 3706 
L 981 3138 
Q 1809 3016 2294 2522 
Q 2709 2097 2709 1522 
Q 2709 1188 2573 903 
Q 2438 619 2231 419 
Q 2025 219 1772 97 
Q 1413 -75 1034 -75 
Q 653 -75 479 54 
Q 306 184 306 341 
Q 306 428 378 495 
Q 450 563 559 563 
Q 641 563 702 538 
Q 763 513 909 409 
Q 1144 247 1384 247 
Q 1750 247 2026 523 
Q 2303 800 2303 1197 
Q 2303 1581 2056 1914 
Q 1809 2247 1375 2428 
Q 1034 2569 447 2591 
L 1259 4238 
L 2778 4238 
z
" transform="scale(0.015625)"/>
       </defs>
       <use xlink:href="#TimesNewRomanPSMT-2212"/>
       <use xlink:href="#TimesNewRomanPSMT-31" transform="translate(56.396484 0)"/>
       <use xlink:href="#TimesNewRomanPSMT-2e" transform="translate(106.396484 0)"/>
       <use xlink:href="#TimesNewRomanPSMT-35" transform="translate(131.396484 0)"/>
      </g>
     </g>
    </g>
    <g id="ytick_2">
     <g id="line2d_15">
      <path d="M 45.421875 141.17043 
L 705.326875 141.17043 
" clip-path="url(#p5c7b6acaa6)" style="fill: none; stroke: #b0b0b0; stroke-opacity: 0.3; stroke-width: 0.8; stroke-linecap: square"/>
     </g>
     <g id="line2d_16">
      <g>
       <use xlink:href="#maf52aa1da5" x="45.421875" y="141.17043" style="stroke: #000000; stroke-width: 0.8"/>
      </g>
     </g>
     <g id="text_9">
      <!-- −1.0 -->
      <g transform="translate(20.282812 144.642305) scale(0.1 -0.1)">
       <use xlink:href="#TimesNewRomanPSMT-2212"/>
       <use xlink:href="#TimesNewRomanPSMT-31" transform="translate(56.396484 0)"/>
       <use xlink:href="#TimesNewRomanPSMT-2e" transform="translate(106.396484 0)"/>
       <use xlink:href="#TimesNewRomanPSMT-30" transform="translate(131.396484 0)"/>
      </g>
     </g>
    </g>
    <g id="ytick_3">
     <g id="line2d_17">
      <path d="M 45.421875 118.316751 
L 705.326875 118.316751 
" clip-path="url(#p5c7b6acaa6)" style="fill: none; stroke: #b0b0b0; stroke-opacity: 0.3; stroke-width: 0.8; stroke-linecap: square"/>
     </g>
     <g id="line2d_18">
      <g>
       <use xlink:href="#maf52aa1da5" x="45.421875" y="118.316751" style="stroke: #000000; stroke-width: 0.8"/>
      </g>
     </g>
     <g id="text_10">
      <!-- −0.5 -->
      <g transform="translate(20.282812 121.788626) scale(0.1 -0.1)">
       <use xlink:href="#TimesNewRomanPSMT-2212"/>
       <use xlink:href="#TimesNewRomanPSMT-30" transform="translate(56.396484 0)"/>
       <use xlink:href="#TimesNewRomanPSMT-2e" transform="translate(106.396484 0)"/>
       <use xlink:href="#TimesNewRomanPSMT-35" transform="translate(131.396484 0)"/>
      </g>
     </g>
    </g>
    <g id="ytick_4">
     <g id="line2d_19">
      <path d="M 45.421875 95.463071 
L 705.326875 95.463071 
" clip-path="url(#p5c7b6acaa6)" style="fill: none; stroke: #b0b0b0; stroke-opacity: 0.3; stroke-width: 0.8; stroke-linecap: square"/>
     </g>
     <g id="line2d_20">
      <g>
       <use xlink:href="#maf52aa1da5" x="45.421875" y="95.463071" style="stroke: #000000; stroke-width: 0.8"/>
      </g>
     </g>
     <g id="text_11">
      <!-- 0.0 -->
      <g transform="translate(25.921875 98.934946) scale(0.1 -0.1)">
       <use xlink:href="#TimesNewRomanPSMT-30"/>
       <use xlink:href="#TimesNewRomanPSMT-2e" transform="translate(50 0)"/>
       <use xlink:href="#TimesNewRomanPSMT-30" transform="translate(75 0)"/>
      </g>
     </g>
    </g>
    <g id="ytick_5">
     <g id="line2d_21">
      <path d="M 45.421875 72.609391 
L 705.326875 72.609391 
" clip-path="url(#p5c7b6acaa6)" style="fill: none; stroke: #b0b0b0; stroke-opacity: 0.3; stroke-width: 0.8; stroke-linecap: square"/>
     </g>
     <g id="line2d_22">
      <g>
       <use xlink:href="#maf52aa1da5" x="45.421875" y="72.609391" style="stroke: #000000; stroke-width: 0.8"/>
      </g>
     </g>
     <g id="text_12">
      <!-- 0.5 -->
      <g transform="translate(25.921875 76.081266) scale(0.1 -0.1)">
       <use xlink:href="#TimesNewRomanPSMT-30"/>
       <use xlink:href="#TimesNewRomanPSMT-2e" transform="translate(50 0)"/>
       <use xlink:href="#TimesNewRomanPSMT-35" transform="translate(75 0)"/>
      </g>
     </g>
    </g>
    <g id="ytick_6">
     <g id="line2d_23">
      <path d="M 45.421875 49.755711 
L 705.326875 49.755711 
" clip-path="url(#p5c7b6acaa6)" style="fill: none; stroke: #b0b0b0; stroke-opacity: 0.3; stroke-width: 0.8; stroke-linecap: square"/>
     </g>
     <g id="line2d_24">
      <g>
       <use xlink:href="#maf52aa1da5" x="45.421875" y="49.755711" style="stroke: #000000; stroke-width: 0.8"/>
      </g>
     </g>
     <g id="text_13">
      <!-- 1.0 -->
      <g transform="translate(25.921875 53.227586) scale(0.1 -0.1)">
       <use xlink:href="#TimesNewRomanPSMT-31"/>
       <use xlink:href="#TimesNewRomanPSMT-2e" transform="translate(50 0)"/>
       <use xlink:href="#TimesNewRomanPSMT-30" transform="translate(75 0)"/>
      </g>
     </g>
    </g>
    <g id="ytick_7">
     <g id="line2d_25">
      <path d="M 45.421875 26.902031 
L 705.326875 26.902031 
" clip-path="url(#p5c7b6acaa6)" style="fill: none; stroke: #b0b0b0; stroke-opacity: 0.3; stroke-width: 0.8; stroke-linecap: square"/>
     </g>
     <g id="line2d_26">
      <g>
       <use xlink:href="#maf52aa1da5" x="45.421875" y="26.902031" style="stroke: #000000; stroke-width: 0.8"/>
      </g>
     </g>
     <g id="text_14">
      <!-- 1.5 -->
      <g transform="translate(25.921875 30.373906) scale(0.1 -0.1)">
       <use xlink:href="#TimesNewRomanPSMT-31"/>
       <use xlink:href="#TimesNewRomanPSMT-2e" transform="translate(50 0)"/>
       <use xlink:href="#TimesNewRomanPSMT-35" transform="translate(75 0)"/>
      </g>
     </g>
    </g>
    <g id="text_15">
     <!-- x(t) -->
     <g transform="translate(14.14375 103.942813) rotate(-90) scale(0.1 -0.1)">
      <defs>
       <path id="TimesNewRomanPSMT-78" d="M 84 2863 
L 1431 2863 
L 1431 2747 
Q 1303 2747 1251 2703 
Q 1200 2659 1200 2588 
Q 1200 2513 1309 2356 
Q 1344 2306 1413 2200 
L 1616 1875 
L 1850 2200 
Q 2075 2509 2075 2591 
Q 2075 2656 2022 2701 
Q 1969 2747 1850 2747 
L 1850 2863 
L 2819 2863 
L 2819 2747 
Q 2666 2738 2553 2663 
Q 2400 2556 2134 2200 
L 1744 1678 
L 2456 653 
Q 2719 275 2831 198 
Q 2944 122 3122 113 
L 3122 0 
L 1772 0 
L 1772 113 
Q 1913 113 1991 175 
Q 2050 219 2050 291 
Q 2050 363 1850 653 
L 1431 1266 
L 972 653 
Q 759 369 759 316 
Q 759 241 829 180 
Q 900 119 1041 113 
L 1041 0 
L 106 0 
L 106 113 
Q 219 128 303 191 
Q 422 281 703 653 
L 1303 1450 
L 759 2238 
Q 528 2575 401 2661 
Q 275 2747 84 2747 
L 84 2863 
z
" transform="scale(0.015625)"/>
       <path id="TimesNewRomanPSMT-74" d="M 1031 3803 
L 1031 2863 
L 1700 2863 
L 1700 2644 
L 1031 2644 
L 1031 788 
Q 1031 509 1111 412 
Q 1191 316 1316 316 
Q 1419 316 1516 380 
Q 1613 444 1666 569 
L 1788 569 
Q 1678 263 1478 108 
Q 1278 -47 1066 -47 
Q 922 -47 784 33 
Q 647 113 581 261 
Q 516 409 516 719 
L 516 2644 
L 63 2644 
L 63 2747 
Q 234 2816 414 2980 
Q 594 3144 734 3369 
Q 806 3488 934 3803 
L 1031 3803 
z
" transform="scale(0.015625)"/>
      </defs>
      <use xlink:href="#TimesNewRomanPSMT-78"/>
      <use xlink:href="#TimesNewRomanPSMT-28" transform="translate(50 0)"/>
      <use xlink:href="#TimesNewRomanPSMT-74" transform="translate(83.300781 0)"/>
      <use xlink:href="#TimesNewRomanPSMT-29" transform="translate(111.083984 0)"/>
     </g>
    </g>
   </g>
   <g id="line2d_27">
    <path d="M 75.417557 79.337036 
L 76.018071 88.935056 
L 76.618585 80.787314 
L 77.219099 66.413303 
L 77.819613 67.023884 
L 78.420128 90.272478 
L 79.020642 69.951863 
L 79.621156 77.385451 
L 80.22167 74.386954 
L 80.822184 67.218368 
L 81.422698 67.280189 
L 82.023212 53.033903 
L 83.224241 61.031551 
L 83.824755 56.187382 
L 84.425269 55.434765 
L 85.025783 43.212989 
L 85.626297 57.284855 
L 86.226812 51.243916 
L 86.827326 60.773135 
L 87.42784 75.330873 
L 88.028354 45.216656 
L 88.628868 42.663095 
L 89.229382 56.900608 
L 89.829896 29.097006 
L 90.430411 63.050754 
L 91.030925 49.427604 
L 91.631439 51.827263 
L 92.231953 36.553456 
L 92.832467 37.75959 
L 93.432981 50.576341 
L 94.033495 49.50848 
L 95.234524 73.516801 
L 95.835038 60.0515 
L 96.435552 57.05578 
L 97.036066 48.998277 
L 97.63658 51.152318 
L 98.237095 67.714967 
L 98.837609 69.091595 
L 99.438123 78.182276 
L 100.639151 89.041203 
L 101.239665 58.168865 
L 101.840179 83.29604 
L 102.440694 85.343364 
L 103.041208 95.548506 
L 103.641722 79.790959 
L 104.242236 104.487821 
L 104.84275 94.537841 
L 105.443264 103.648953 
L 106.043778 94.796201 
L 106.644293 105.861233 
L 107.244807 114.820492 
L 107.845321 107.087656 
L 108.445835 105.671838 
L 109.046349 111.681007 
L 109.646863 112.15928 
L 110.247378 123.281397 
L 110.847892 123.270287 
L 111.448406 128.476461 
L 112.04892 127.884883 
L 112.649434 134.185265 
L 113.249948 144.563066 
L 113.850462 129.05926 
L 114.450977 136.113971 
L 115.051491 148.957483 
L 115.652005 131.286224 
L 116.252519 145.114369 
L 116.853033 137.485842 
L 117.453547 132.268392 
L 118.054062 138.555356 
L 118.654576 129.945028 
L 119.25509 152.09814 
L 119.855604 137.402242 
L 120.456118 147.430603 
L 121.056632 149.040605 
L 122.257661 143.208876 
L 122.858175 139.221016 
L 123.458689 149.584537 
L 124.059203 129.725819 
L 124.659717 132.563486 
L 125.260231 149.560264 
L 125.860745 120.450255 
L 126.46126 115.109884 
L 127.061774 119.905416 
L 127.662288 130.42708 
L 128.262802 136.540166 
L 128.863316 114.958797 
L 129.46383 126.014813 
L 130.064345 108.779351 
L 130.664859 115.578819 
L 131.265373 105.9964 
L 131.865887 109.031359 
L 132.466401 103.128303 
L 133.066915 106.734043 
L 133.667429 87.702291 
L 134.267944 100.031559 
L 134.868458 94.658285 
L 135.468972 78.248301 
L 136.069486 104.913583 
L 136.67 101.348522 
L 137.270514 78.036653 
L 137.871028 94.820187 
L 138.471543 63.571161 
L 139.072057 82.418156 
L 139.672571 82.834661 
L 140.273085 55.864862 
L 140.873599 57.437758 
L 141.474113 51.524721 
L 142.074628 58.045521 
L 142.675142 72.0471 
L 143.275656 44.683034 
L 143.87617 62.69489 
L 144.476684 51.149407 
L 145.077198 48.211793 
L 145.677712 56.826427 
L 146.278227 48.492226 
L 146.878741 44.535116 
L 147.479255 48.551705 
L 148.079769 61.241833 
L 148.680283 47.838978 
L 149.280797 37.991008 
L 149.881311 56.195277 
L 150.481826 51.123591 
L 151.08234 53.823848 
L 151.682854 33.211135 
L 152.283368 44.41955 
L 152.883882 47.466891 
L 153.484396 59.030955 
L 154.084911 48.035911 
L 154.685425 60.270208 
L 155.285939 55.118428 
L 155.886453 62.68364 
L 156.486967 52.301444 
L 157.087481 54.974056 
L 157.687995 64.047997 
L 158.28851 60.554146 
L 158.889024 76.320294 
L 159.489538 82.229248 
L 160.090052 66.955156 
L 160.690566 71.919741 
L 161.29108 70.196701 
L 161.891594 56.851618 
L 162.492109 72.704787 
L 163.092623 92.440651 
L 163.693137 76.687193 
L 164.293651 101.76375 
L 164.894165 96.812645 
L 165.494679 96.086899 
L 166.095194 82.670585 
L 166.695708 107.999877 
L 167.296222 111.582641 
L 167.896736 107.73003 
L 168.49725 115.65259 
L 169.097764 101.989961 
L 169.698278 124.796481 
L 170.298793 127.972312 
L 170.899307 123.956618 
L 171.499821 126.881932 
L 172.100335 106.959275 
L 173.901878 141.883481 
L 174.502392 124.722381 
L 175.102906 143.198511 
L 175.70342 149.638217 
L 176.303934 125.959985 
L 176.904448 135.063377 
L 177.504962 130.515348 
L 178.105477 136.82081 
L 178.705991 132.528134 
L 179.306505 146.761346 
L 179.907019 150.534739 
L 180.507533 134.939653 
L 181.108047 148.424584 
L 181.708561 147.113514 
L 182.309076 144.525065 
L 182.90959 139.574664 
L 183.510104 142.169378 
L 184.110618 150.529778 
L 184.711132 142.703946 
L 185.311646 155.841913 
L 185.912161 128.339535 
L 186.512675 147.086266 
L 187.113189 140.776886 
L 187.713703 128.305436 
L 188.314217 133.512606 
L 188.914731 110.492614 
L 189.515245 134.147798 
L 190.11576 117.513061 
L 190.716274 117.841862 
L 191.316788 125.602412 
L 191.917302 107.505553 
L 192.517816 111.155608 
L 193.11833 99.774727 
L 193.718844 96.499736 
L 194.319359 81.416561 
L 194.919873 86.115227 
L 195.520387 98.837936 
L 196.120901 94.78136 
L 196.721415 79.681912 
L 197.321929 80.908291 
L 197.922444 78.244368 
L 198.522958 96.120078 
L 199.123472 78.859446 
L 199.723986 82.748512 
L 200.3245 70.884459 
L 200.925014 71.869082 
L 201.525528 60.276584 
L 202.126043 63.428262 
L 202.726557 56.986035 
L 203.327071 66.407597 
L 203.927585 68.878574 
L 204.528099 62.233498 
L 205.729127 51.943401 
L 206.329642 33.452406 
L 206.930156 53.351735 
L 207.53067 60.731533 
L 208.131184 54.354475 
L 208.731698 54.803264 
L 209.332212 45.714678 
L 209.932727 63.931057 
L 210.533241 49.177403 
L 211.133755 48.415204 
L 211.734269 47.993651 
L 212.334783 56.025662 
L 212.935297 53.366647 
L 213.535811 65.010801 
L 214.136326 57.475112 
L 214.73684 59.068368 
L 215.337354 51.606096 
L 215.937868 67.44028 
L 216.538382 51.343739 
L 217.138896 46.583156 
L 217.73941 81.066549 
L 218.339925 60.277598 
L 218.940439 60.140167 
L 219.540953 74.424071 
L 220.141467 74.603492 
L 220.741981 74.658106 
L 221.342495 78.72407 
L 221.94301 81.461903 
L 222.543524 96.659862 
L 223.144038 73.562106 
L 223.744552 77.029063 
L 224.345066 97.169766 
L 224.94558 105.998359 
L 225.546094 90.699771 
L 226.146609 103.596609 
L 226.747123 99.894061 
L 227.347637 106.946908 
L 227.948151 100.508347 
L 228.548665 103.236392 
L 229.149179 118.9221 
L 229.749694 127.570301 
L 230.350208 131.953146 
L 230.950722 114.374533 
L 231.551236 133.197106 
L 232.15175 129.231086 
L 232.752264 132.203099 
L 233.352778 129.262844 
L 233.953293 148.381644 
L 234.553807 130.715387 
L 235.154321 129.265936 
L 236.355349 139.662283 
L 236.955863 137.070318 
L 237.556377 135.285482 
L 238.156892 165.080028 
L 238.757406 122.48091 
L 239.35792 137.243987 
L 239.958434 147.044212 
L 240.558948 144.74432 
L 241.159462 136.566711 
L 241.759977 141.871375 
L 242.360491 158.924272 
L 242.961005 120.861946 
L 243.561519 139.943857 
L 244.162033 128.634819 
L 244.762547 143.14668 
L 245.363061 121.471988 
L 245.963576 131.437468 
L 246.56409 126.875373 
L 247.164604 140.236351 
L 247.765118 117.710651 
L 248.365632 120.445958 
L 248.966146 112.697247 
L 249.56666 128.070827 
L 250.167175 124.351595 
L 250.767689 96.421569 
L 251.368203 124.614423 
L 251.968717 113.531852 
L 252.569231 99.194561 
L 253.169745 105.936679 
L 253.77026 98.698721 
L 254.370774 104.843274 
L 254.971288 94.950204 
L 255.571802 107.406649 
L 256.172316 77.435327 
L 256.77283 90.814613 
L 257.373344 93.116196 
L 257.973859 78.00439 
L 258.574373 85.550377 
L 259.174887 90.834156 
L 259.775401 88.312804 
L 260.375915 67.101274 
L 260.976429 72.430579 
L 261.576943 69.819188 
L 262.177458 56.475938 
L 262.777972 74.475076 
L 264.579514 57.622528 
L 265.180028 57.25658 
L 265.780543 58.031977 
L 266.381057 54.669171 
L 266.981571 53.946371 
L 267.582085 58.571032 
L 268.182599 58.623644 
L 268.783113 48.05583 
L 269.383627 58.260402 
L 269.984142 60.425835 
L 270.584656 52.610522 
L 271.18517 51.287213 
L 271.785684 29.486353 
L 272.386198 57.007312 
L 272.986712 42.5689 
L 273.587226 45.162387 
L 274.187741 63.834149 
L 274.788255 47.037145 
L 275.388769 66.231818 
L 275.989283 81.179819 
L 276.589797 52.942387 
L 277.190311 76.296369 
L 277.790826 58.021635 
L 278.39134 70.427096 
L 278.991854 51.157366 
L 279.592368 58.82921 
L 280.192882 75.116456 
L 280.793396 79.73123 
L 281.39391 87.100278 
L 281.994425 82.667751 
L 282.594939 83.901582 
L 283.195453 87.429948 
L 283.795967 85.465862 
L 284.396481 84.445881 
L 284.996995 89.396725 
L 285.597509 102.448471 
L 286.198024 111.47659 
L 286.798538 88.717892 
L 287.399052 110.330356 
L 287.999566 112.792952 
L 288.60008 114.351859 
L 289.200594 129.137441 
L 289.801109 119.293704 
L 290.401623 121.867519 
L 291.002137 114.283311 
L 291.602651 115.944256 
L 292.203165 124.563567 
L 292.803679 118.233446 
L 293.404193 125.674522 
L 294.004708 130.824554 
L 294.605222 130.969981 
L 295.205736 135.797924 
L 295.80625 139.126241 
L 296.406764 139.267805 
L 297.007278 148.272383 
L 297.607793 136.369703 
L 298.208307 148.813061 
L 298.808821 132.667079 
L 299.409335 143.090433 
L 300.009849 140.62778 
L 300.610363 136.656035 
L 301.210877 135.199396 
L 301.811392 155.167824 
L 303.01242 131.688319 
L 303.612934 154.45654 
L 304.213448 134.420385 
L 304.813962 157.439503 
L 306.014991 133.701931 
L 306.615505 147.585916 
L 307.216019 139.690215 
L 307.816533 142.23704 
L 308.417047 111.685532 
L 309.017561 123.096755 
L 309.618076 117.143314 
L 310.21859 121.989877 
L 310.819104 120.713646 
L 311.419618 129.701271 
L 312.020132 114.956895 
L 312.620646 116.548581 
L 313.22116 98.987341 
L 314.422189 87.785034 
L 315.022703 90.53948 
L 315.623217 100.935649 
L 316.223731 102.794023 
L 316.824245 82.72599 
L 317.424759 83.641325 
L 318.025274 100.263157 
L 318.625788 78.089093 
L 319.226302 71.191159 
L 319.826816 75.463157 
L 320.42733 75.135045 
L 321.628359 81.820415 
L 322.228873 59.012202 
L 322.829387 66.999991 
L 323.429901 64.278068 
L 324.030415 44.405323 
L 324.630929 52.227692 
L 325.231443 53.481184 
L 325.831958 54.110752 
L 326.432472 40.210825 
L 327.032986 37.245865 
L 327.6335 43.495744 
L 328.234014 45.869302 
L 328.834528 69.713069 
L 329.435042 48.985127 
L 330.035557 51.035273 
L 330.636071 48.89684 
L 331.236585 41.225075 
L 331.837099 75.160809 
L 332.437613 55.769664 
L 333.038127 48.724369 
L 333.638642 56.260444 
L 334.239156 65.91805 
L 334.83967 46.16221 
L 335.440184 52.878389 
L 336.040698 65.748396 
L 336.641212 55.607147 
L 337.241726 52.734442 
L 337.842241 62.095457 
L 338.442755 56.855889 
L 339.043269 65.61269 
L 339.643783 72.209933 
L 340.244297 81.570653 
L 340.844811 74.228916 
L 341.445325 74.2257 
L 342.04584 70.630669 
L 342.646354 82.390971 
L 343.246868 79.914661 
L 343.847382 95.716339 
L 344.447896 96.888802 
L 345.04841 93.602203 
L 345.648925 105.103927 
L 346.249439 90.834787 
L 346.849953 96.958029 
L 347.450467 101.47643 
L 348.050981 103.731946 
L 348.651495 91.112109 
L 349.252009 116.575181 
L 349.852524 135.048732 
L 350.453038 115.660862 
L 351.053552 120.41689 
L 352.25458 133.545984 
L 352.855094 130.76675 
L 353.455609 127.124602 
L 354.056123 135.277681 
L 354.656637 110.387724 
L 355.257151 142.835495 
L 355.857665 142.766995 
L 356.458179 157.741682 
L 357.058693 135.661761 
L 357.659208 157.366277 
L 358.259722 144.665859 
L 358.860236 142.880862 
L 359.46075 147.297972 
L 360.061264 125.184382 
L 360.661778 132.080202 
L 361.262292 129.021385 
L 361.862807 148.876621 
L 362.463321 130.043816 
L 363.063835 135.200271 
L 364.264863 128.550113 
L 364.865377 145.12776 
L 365.465892 139.395623 
L 366.066406 126.169674 
L 366.66692 156.717369 
L 367.267434 116.84715 
L 367.867948 123.725861 
L 368.468462 127.169713 
L 369.068976 122.582274 
L 369.669491 131.744307 
L 370.270005 123.153296 
L 370.870519 107.424541 
L 371.471033 103.058486 
L 372.071547 87.641616 
L 372.672061 110.263202 
L 373.272575 112.850172 
L 373.87309 108.728631 
L 374.473604 110.498123 
L 375.074118 99.044767 
L 375.674632 91.964333 
L 376.275146 92.906107 
L 376.87566 79.712196 
L 377.476175 89.039443 
L 378.076689 87.272323 
L 378.677203 86.652369 
L 379.277717 93.561752 
L 379.878231 90.333528 
L 380.478745 84.222621 
L 381.079259 59.074875 
L 381.679774 60.412962 
L 382.280288 53.758908 
L 382.880802 76.352605 
L 383.481316 80.139967 
L 384.08183 66.278831 
L 384.682344 56.877796 
L 385.282858 52.312307 
L 385.883373 45.829398 
L 386.483887 51.507081 
L 387.084401 37.034885 
L 387.684915 54.027732 
L 388.885943 65.934123 
L 389.486458 58.242634 
L 390.086972 47.63259 
L 390.687486 57.879922 
L 391.288 41.282699 
L 391.888514 37.205373 
L 392.489028 72.226826 
L 393.089542 43.292982 
L 393.690057 72.466066 
L 394.290571 49.29515 
L 394.891085 42.908695 
L 396.092113 68.569313 
L 396.692627 63.836743 
L 397.293141 62.636769 
L 397.893656 63.809825 
L 398.49417 66.029006 
L 399.094684 67.332594 
L 399.695198 66.645437 
L 400.295712 82.019985 
L 400.896226 75.6558 
L 401.496741 62.122682 
L 402.097255 82.153295 
L 402.697769 85.396035 
L 403.298283 74.239802 
L 403.898797 110.29308 
L 404.499311 78.93488 
L 405.099825 98.369612 
L 405.70034 93.964522 
L 406.300854 97.452541 
L 406.901368 92.576176 
L 407.501882 106.473986 
L 408.102396 113.028182 
L 408.70291 97.723201 
L 409.303425 133.901101 
L 409.903939 114.738434 
L 410.504453 129.804782 
L 411.104967 126.9162 
L 411.705481 103.943336 
L 412.305995 125.005706 
L 412.906509 124.968687 
L 413.507024 145.068409 
L 414.708052 130.644277 
L 415.308566 130.812063 
L 415.90908 129.877484 
L 416.509594 136.741454 
L 417.110108 133.143105 
L 417.710623 134.785118 
L 418.311137 156.46097 
L 418.911651 140.022541 
L 419.512165 133.790256 
L 420.112679 135.687867 
L 420.713193 144.496635 
L 421.313708 148.444849 
L 421.914222 151.033031 
L 422.514736 141.558854 
L 423.11525 129.376432 
L 423.715764 156.775715 
L 424.316278 143.993081 
L 424.916792 147.239798 
L 425.517307 128.341068 
L 426.117821 139.122277 
L 426.718335 136.743422 
L 427.318849 132.664435 
L 427.919363 124.710752 
L 428.519877 130.338924 
L 429.120391 152.444269 
L 429.720906 117.362512 
L 430.32142 115.9408 
L 430.921934 119.489687 
L 431.522448 124.834008 
L 432.122962 109.073284 
L 432.723476 106.120651 
L 433.323991 111.126821 
L 433.924505 106.00902 
L 434.525019 109.694721 
L 435.125533 99.965627 
L 435.726047 109.636277 
L 436.326561 88.778174 
L 436.927075 98.367338 
L 437.52759 84.721752 
L 438.128104 96.948683 
L 438.728618 86.732715 
L 439.329132 79.647105 
L 439.929646 91.183064 
L 440.53016 72.390761 
L 441.130674 74.437809 
L 441.731189 84.524659 
L 442.331703 78.24166 
L 442.932217 58.642542 
L 443.532731 53.95714 
L 444.133245 61.450784 
L 444.733759 54.784921 
L 445.334274 54.824811 
L 445.934788 52.396167 
L 446.535302 42.350029 
L 447.135816 66.741626 
L 447.73633 45.808942 
L 448.336844 54.683816 
L 448.937358 52.615371 
L 449.537873 52.879135 
L 450.138387 53.275301 
L 450.738901 60.964949 
L 451.939929 34.841248 
L 452.540443 51.078453 
L 453.140957 51.204353 
L 453.741472 58.275713 
L 454.9425 49.844368 
L 455.543014 58.793967 
L 456.143528 61.019507 
L 456.744042 54.798609 
L 457.344557 68.63686 
L 457.945071 59.835649 
L 459.146099 53.896172 
L 459.746613 69.423183 
L 460.347127 58.469991 
L 460.947641 63.987353 
L 461.548156 85.108673 
L 462.14867 89.77082 
L 462.749184 84.126536 
L 463.349698 74.690128 
L 463.950212 87.559175 
L 464.550726 95.225314 
L 465.151241 78.403294 
L 465.751755 92.840341 
L 466.352269 119.546707 
L 466.952783 98.292407 
L 467.553297 99.273839 
L 468.153811 104.767634 
L 468.754325 105.476391 
L 469.35484 112.90407 
L 469.955354 126.976397 
L 470.555868 120.871539 
L 471.156382 128.598619 
L 471.756896 130.855807 
L 472.35741 136.144342 
L 472.957924 122.615495 
L 473.558439 127.887387 
L 474.158953 134.778088 
L 474.759467 138.377006 
L 475.359981 134.269192 
L 475.960495 125.651307 
L 476.561009 155.141808 
L 477.161524 134.515493 
L 477.762038 143.921964 
L 478.362552 156.962338 
L 478.963066 158.147417 
L 480.164094 139.073597 
L 480.764608 137.577257 
L 481.365123 149.663911 
L 481.965637 131.512945 
L 482.566151 127.352664 
L 483.767179 144.339644 
L 484.367693 127.681852 
L 484.968207 129.914898 
L 485.568722 127.587355 
L 486.169236 140.056115 
L 486.76975 158.353102 
L 487.370264 111.330611 
L 487.970778 143.508102 
L 488.571292 127.078884 
L 489.171807 102.834521 
L 489.772321 119.307224 
L 490.372835 111.276789 
L 490.973349 131.216875 
L 491.573863 131.17481 
L 492.174377 117.15876 
L 492.774891 99.616364 
L 493.375406 109.995258 
L 493.97592 111.291921 
L 495.176948 88.442579 
L 495.777462 108.671951 
L 496.377976 103.659227 
L 496.97849 96.944017 
L 497.579005 76.89176 
L 498.179519 81.949498 
L 498.780033 61.847699 
L 499.380547 70.076577 
L 499.981061 76.322645 
L 500.581575 61.878709 
L 501.782604 75.040978 
L 502.383118 60.112132 
L 502.983632 70.539681 
L 503.584146 64.798496 
L 504.18466 48.107057 
L 504.785174 59.410902 
L 505.385689 64.212965 
L 505.986203 59.654136 
L 506.586717 44.765145 
L 507.187231 58.016478 
L 507.787745 55.529357 
L 508.388259 55.856519 
L 508.988773 48.883964 
L 509.589288 53.640071 
L 510.189802 64.489043 
L 510.790316 57.865851 
L 511.39083 58.372969 
L 511.991344 38.750358 
L 512.591858 43.136277 
L 513.192373 45.823277 
L 513.792887 56.612507 
L 514.393401 60.422978 
L 514.993915 58.745273 
L 515.594429 65.025139 
L 516.194943 34.042983 
L 516.795457 79.010585 
L 517.395972 55.089077 
L 517.996486 73.886538 
L 518.597 65.128083 
L 519.197514 75.359895 
L 519.798028 79.362221 
L 520.398542 81.394915 
L 520.999056 57.400226 
L 521.599571 77.217533 
L 522.200085 85.636714 
L 522.800599 76.258009 
L 523.401113 84.001505 
L 524.001627 80.316197 
L 524.602141 106.410811 
L 525.202656 89.817695 
L 525.80317 88.399503 
L 526.403684 113.522514 
L 527.004198 97.094557 
L 527.604712 88.52218 
L 528.205226 106.96585 
L 528.80574 102.078562 
L 529.406255 106.159071 
L 530.006769 121.391961 
L 530.607283 117.119233 
L 531.207797 134.278937 
L 531.808311 126.454757 
L 532.408825 122.169259 
L 533.00934 120.141709 
L 533.609854 128.557311 
L 534.210368 124.099486 
L 534.810882 142.523288 
L 535.411396 134.984734 
L 536.01191 135.340493 
L 536.612424 119.91234 
L 537.212939 139.918497 
L 537.813453 143.495099 
L 538.413967 139.539268 
L 539.014481 148.762877 
L 539.614995 139.04796 
L 540.215509 144.417379 
L 540.816023 157.545801 
L 541.416538 141.615805 
L 542.017052 143.712825 
L 542.617566 155.283579 
L 543.818594 125.318447 
L 544.419108 133.195215 
L 545.019623 131.226411 
L 545.620137 147.77999 
L 546.220651 129.695518 
L 546.821165 131.084054 
L 547.421679 125.844944 
L 548.022193 124.918854 
L 548.622707 139.182309 
L 549.223222 124.976503 
L 549.823736 129.257238 
L 550.42425 120.412141 
L 551.024764 125.686325 
L 551.625278 102.926407 
L 552.225792 120.141344 
L 552.826306 117.805076 
L 553.426821 106.148199 
L 554.027335 113.874047 
L 554.627849 105.07377 
L 555.228363 105.920158 
L 555.828877 82.562881 
L 556.429391 85.409678 
L 557.029906 90.259776 
L 557.63042 90.474665 
L 558.230934 75.494741 
L 558.831448 77.634558 
L 559.431962 74.084137 
L 560.032476 76.241259 
L 560.63299 88.87629 
L 561.233505 71.999947 
L 561.834019 73.4647 
L 562.434533 60.431348 
L 563.035047 54.924501 
L 563.635561 68.15848 
L 564.836589 42.616551 
L 565.437104 62.974948 
L 566.037618 40.034166 
L 566.638132 61.899705 
L 567.238646 52.755557 
L 567.83916 52.094676 
L 568.439674 51.086575 
L 569.040189 58.222924 
L 569.640703 55.520411 
L 570.241217 55.94985 
L 570.841731 46.766792 
L 571.442245 46.828897 
L 572.042759 29.76772 
L 572.643273 38.032457 
L 573.243788 55.85241 
L 573.844302 49.023002 
L 574.444816 43.850316 
L 575.04533 53.826069 
L 575.645844 56.046033 
L 576.246358 56.3996 
L 576.846872 50.556855 
L 577.447387 67.999843 
L 578.047901 65.120938 
L 578.648415 59.873779 
L 579.248929 63.481019 
L 579.849443 66.40682 
L 580.449957 74.35237 
L 581.650986 56.495127 
L 582.2515 74.921834 
L 582.852014 83.104639 
L 583.452528 77.187534 
L 584.053042 91.826831 
L 584.653556 96.587693 
L 585.254071 92.293162 
L 585.854585 119.073634 
L 586.455099 108.881864 
L 587.055613 104.372605 
L 587.656127 116.399742 
L 588.256641 116.269907 
L 588.857156 113.579944 
L 589.45767 127.308193 
L 590.058184 118.636412 
L 590.658698 122.375916 
L 591.259212 119.722058 
L 591.859726 111.778242 
L 592.46024 123.021094 
L 593.060755 126.559374 
L 593.661269 127.873142 
L 594.261783 128.602492 
L 594.862297 141.735589 
L 595.462811 135.104286 
L 596.063325 132.694294 
L 596.663839 149.35109 
L 597.264354 130.047357 
L 597.864868 129.047984 
L 598.465382 145.506155 
L 599.065896 142.56701 
L 599.66641 148.837967 
L 600.266924 134.68687 
L 600.867439 150.871564 
L 601.467953 143.114005 
L 602.068467 148.661806 
L 602.668981 139.89503 
L 603.269495 156.136346 
L 603.870009 126.807541 
L 604.470523 146.778621 
L 605.071038 136.272801 
L 605.671552 137.459509 
L 606.272066 141.021919 
L 606.87258 140.556719 
L 607.473094 122.121136 
L 608.073608 133.587431 
L 608.674122 124.273017 
L 609.274637 131.9249 
L 609.875151 128.245373 
L 610.475665 115.637265 
L 611.076179 108.977456 
L 612.277207 125.287513 
L 612.877722 91.323162 
L 613.478236 114.66015 
L 614.07875 118.120154 
L 614.679264 77.474862 
L 615.279778 102.026509 
L 615.880292 108.825459 
L 616.480806 98.840727 
L 617.081321 86.374518 
L 617.681835 85.158638 
L 618.282349 91.882171 
L 618.882863 64.676343 
L 619.483377 83.405075 
L 620.083891 86.831603 
L 620.684405 64.661231 
L 621.28492 58.822252 
L 621.885434 76.070049 
L 622.485948 79.13848 
L 623.086462 54.754507 
L 623.686976 80.859391 
L 624.28749 71.458072 
L 624.888005 49.641158 
L 625.488519 57.377074 
L 626.089033 57.822182 
L 626.689547 50.880552 
L 627.290061 54.362026 
L 627.890575 63.864697 
L 628.491089 39.526485 
L 629.091604 38.452735 
L 629.692118 48.239085 
L 630.292632 49.433313 
L 630.893146 28.368097 
L 631.49366 52.372907 
L 632.094174 52.489043 
L 632.694688 47.233419 
L 633.295203 37.741643 
L 633.895717 37.432519 
L 634.496231 55.329177 
L 635.096745 51.287214 
L 635.697259 68.007117 
L 636.297773 59.722991 
L 636.898288 66.166531 
L 637.498802 69.448869 
L 638.099316 46.771753 
L 638.69983 71.416896 
L 639.300344 71.187764 
L 640.501372 59.107809 
L 641.101887 69.045282 
L 641.702401 50.777256 
L 642.302915 79.319645 
L 642.903429 78.973671 
L 643.503943 81.576717 
L 644.104457 73.779902 
L 644.704972 85.097509 
L 645.305486 93.655592 
L 645.906 104.124511 
L 647.107028 88.381367 
L 647.707542 107.779269 
L 648.308056 101.994706 
L 648.908571 107.337268 
L 649.509085 104.395231 
L 650.109599 122.280952 
L 650.710113 96.030951 
L 651.310627 131.647714 
L 651.911141 125.670858 
L 652.511655 116.022492 
L 653.11217 124.039333 
L 653.712684 121.195007 
L 654.313198 135.216302 
L 654.913712 133.124929 
L 655.514226 133.943252 
L 656.11474 121.171393 
L 656.715255 130.508789 
L 657.315769 130.677943 
L 657.916283 144.947766 
L 658.516797 130.877436 
L 659.117311 138.298679 
L 659.717825 128.111181 
L 660.318339 122.668763 
L 660.918854 143.974721 
L 661.519368 144.794446 
L 662.119882 148.708657 
L 662.720396 141.673355 
L 663.32091 143.226724 
L 663.921424 135.646954 
L 664.521938 139.282252 
L 665.122453 140.125876 
L 665.722967 125.78486 
L 666.323481 142.628677 
L 666.923995 128.481857 
L 667.524509 134.392101 
L 668.125023 122.160508 
L 668.725538 114.088582 
L 669.326052 127.368802 
L 669.926566 118.297493 
L 670.52708 118.319869 
L 671.127594 124.790657 
L 671.728108 112.723166 
L 672.328622 109.646085 
L 672.929137 105.813175 
L 673.529651 108.643687 
L 674.130165 103.16672 
L 674.730679 111.682575 
L 675.331193 101.606749 
L 675.331193 101.606749 
" clip-path="url(#p5c7b6acaa6)" style="fill: none; stroke: #1f77b4; stroke-linecap: square"/>
   </g>
   <g id="patch_3">
    <path d="M 45.421875 171.915625 
L 45.421875 21.5325 
" style="fill: none; stroke: #000000; stroke-width: 0.8; stroke-linejoin: miter; stroke-linecap: square"/>
   </g>
   <g id="patch_4">
    <path d="M 705.326875 171.915625 
L 705.326875 21.5325 
" style="fill: none; stroke: #000000; stroke-width: 0.8; stroke-linejoin: miter; stroke-linecap: square"/>
   </g>
   <g id="patch_5">
    <path d="M 45.421875 171.915625 
L 705.326875 171.915625 
" style="fill: none; stroke: #000000; stroke-width: 0.8; stroke-linejoin: miter; stroke-linecap: square"/>
   </g>
   <g id="patch_6">
    <path d="M 45.421875 21.5325 
L 705.326875 21.5325 
" style="fill: none; stroke: #000000; stroke-width: 0.8; stroke-linejoin: miter; stroke-linecap: square"/>
   </g>
   <g id="text_16">
    <!-- Noisy sine (first 1000 samples) -->
    <g transform="translate(300.381875 15.5325) scale(0.12 -0.12)">
     <defs>
      <path id="TimesNewRomanPSMT-4e" d="M -84 4238 
L 1066 4238 
L 3656 1059 
L 3656 3503 
Q 3656 3894 3569 3991 
Q 3453 4122 3203 4122 
L 3056 4122 
L 3056 4238 
L 4531 4238 
L 4531 4122 
L 4381 4122 
Q 4113 4122 4000 3959 
Q 3931 3859 3931 3503 
L 3931 -69 
L 3819 -69 
L 1025 3344 
L 1025 734 
Q 1025 344 1109 247 
Q 1228 116 1475 116 
L 1625 116 
L 1625 0 
L 150 0 
L 150 116 
L 297 116 
Q 569 116 681 278 
Q 750 378 750 734 
L 750 3681 
Q 566 3897 470 3965 
Q 375 4034 191 4094 
Q 100 4122 -84 4122 
L -84 4238 
z
" transform="scale(0.015625)"/>
      <path id="TimesNewRomanPSMT-6f" d="M 1600 2947 
Q 2250 2947 2644 2453 
Q 2978 2031 2978 1484 
Q 2978 1100 2793 706 
Q 2609 313 2286 112 
Q 1963 -88 1566 -88 
Q 919 -88 538 428 
Q 216 863 216 1403 
Q 216 1797 411 2186 
Q 606 2575 925 2761 
Q 1244 2947 1600 2947 
z
M 1503 2744 
Q 1338 2744 1170 2645 
Q 1003 2547 900 2300 
Q 797 2053 797 1666 
Q 797 1041 1045 587 
Q 1294 134 1700 134 
Q 2003 134 2200 384 
Q 2397 634 2397 1244 
Q 2397 2006 2069 2444 
Q 1847 2744 1503 2744 
z
" transform="scale(0.015625)"/>
      <path id="TimesNewRomanPSMT-79" d="M 38 2863 
L 1372 2863 
L 1372 2747 
L 1306 2747 
Q 1166 2747 1095 2686 
Q 1025 2625 1025 2534 
Q 1025 2413 1128 2197 
L 1825 753 
L 2466 2334 
Q 2519 2463 2519 2588 
Q 2519 2644 2497 2672 
Q 2472 2706 2419 2726 
Q 2366 2747 2231 2747 
L 2231 2863 
L 3163 2863 
L 3163 2747 
Q 3047 2734 2984 2696 
Q 2922 2659 2847 2556 
Q 2819 2513 2741 2316 
L 1575 -541 
Q 1406 -956 1132 -1168 
Q 859 -1381 606 -1381 
Q 422 -1381 303 -1275 
Q 184 -1169 184 -1031 
Q 184 -900 270 -820 
Q 356 -741 506 -741 
Q 609 -741 788 -809 
Q 913 -856 944 -856 
Q 1038 -856 1148 -759 
Q 1259 -663 1372 -384 
L 1575 113 
L 547 2272 
Q 500 2369 397 2513 
Q 319 2622 269 2659 
Q 197 2709 38 2747 
L 38 2863 
z
" transform="scale(0.015625)"/>
      <path id="TimesNewRomanPSMT-6e" d="M 1034 2341 
Q 1538 2947 1994 2947 
Q 2228 2947 2397 2830 
Q 2566 2713 2666 2444 
Q 2734 2256 2734 1869 
L 2734 647 
Q 2734 375 2778 278 
Q 2813 200 2889 156 
Q 2966 113 3172 113 
L 3172 0 
L 1756 0 
L 1756 113 
L 1816 113 
Q 2016 113 2095 173 
Q 2175 234 2206 353 
Q 2219 400 2219 647 
L 2219 1819 
Q 2219 2209 2117 2386 
Q 2016 2563 1775 2563 
Q 1403 2563 1034 2156 
L 1034 647 
Q 1034 356 1069 288 
Q 1113 197 1189 155 
Q 1266 113 1500 113 
L 1500 0 
L 84 0 
L 84 113 
L 147 113 
Q 366 113 442 223 
Q 519 334 519 647 
L 519 1709 
Q 519 2225 495 2337 
Q 472 2450 423 2490 
Q 375 2531 294 2531 
Q 206 2531 84 2484 
L 38 2597 
L 900 2947 
L 1034 2947 
L 1034 2341 
z
" transform="scale(0.015625)"/>
      <path id="TimesNewRomanPSMT-66" d="M 1319 2638 
L 1319 756 
Q 1319 356 1406 250 
Q 1522 113 1716 113 
L 1975 113 
L 1975 0 
L 266 0 
L 266 113 
L 394 113 
Q 519 113 622 175 
Q 725 238 764 344 
Q 803 450 803 756 
L 803 2638 
L 247 2638 
L 247 2863 
L 803 2863 
L 803 3050 
Q 803 3478 940 3775 
Q 1078 4072 1361 4255 
Q 1644 4438 1997 4438 
Q 2325 4438 2600 4225 
Q 2781 4084 2781 3909 
Q 2781 3816 2700 3733 
Q 2619 3650 2525 3650 
Q 2453 3650 2373 3701 
Q 2294 3753 2178 3923 
Q 2063 4094 1966 4153 
Q 1869 4213 1750 4213 
Q 1606 4213 1506 4136 
Q 1406 4059 1362 3898 
Q 1319 3738 1319 3069 
L 1319 2863 
L 2056 2863 
L 2056 2638 
L 1319 2638 
z
" transform="scale(0.015625)"/>
      <path id="TimesNewRomanPSMT-72" d="M 1038 2947 
L 1038 2303 
Q 1397 2947 1775 2947 
Q 1947 2947 2059 2842 
Q 2172 2738 2172 2600 
Q 2172 2478 2090 2393 
Q 2009 2309 1897 2309 
Q 1788 2309 1652 2417 
Q 1516 2525 1450 2525 
Q 1394 2525 1328 2463 
Q 1188 2334 1038 2041 
L 1038 669 
Q 1038 431 1097 309 
Q 1138 225 1241 169 
Q 1344 113 1538 113 
L 1538 0 
L 72 0 
L 72 113 
Q 291 113 397 181 
Q 475 231 506 341 
Q 522 394 522 644 
L 522 1753 
Q 522 2253 501 2348 
Q 481 2444 426 2487 
Q 372 2531 291 2531 
Q 194 2531 72 2484 
L 41 2597 
L 906 2947 
L 1038 2947 
z
" transform="scale(0.015625)"/>
      <path id="TimesNewRomanPSMT-61" d="M 1822 413 
Q 1381 72 1269 19 
Q 1100 -59 909 -59 
Q 613 -59 420 144 
Q 228 347 228 678 
Q 228 888 322 1041 
Q 450 1253 767 1440 
Q 1084 1628 1822 1897 
L 1822 2009 
Q 1822 2438 1686 2597 
Q 1550 2756 1291 2756 
Q 1094 2756 978 2650 
Q 859 2544 859 2406 
L 866 2225 
Q 866 2081 792 2003 
Q 719 1925 600 1925 
Q 484 1925 411 2006 
Q 338 2088 338 2228 
Q 338 2497 613 2722 
Q 888 2947 1384 2947 
Q 1766 2947 2009 2819 
Q 2194 2722 2281 2516 
Q 2338 2381 2338 1966 
L 2338 994 
Q 2338 584 2353 492 
Q 2369 400 2405 369 
Q 2441 338 2488 338 
Q 2538 338 2575 359 
Q 2641 400 2828 588 
L 2828 413 
Q 2478 -56 2159 -56 
Q 2006 -56 1915 50 
Q 1825 156 1822 413 
z
M 1822 616 
L 1822 1706 
Q 1350 1519 1213 1441 
Q 966 1303 859 1153 
Q 753 1003 753 825 
Q 753 600 887 451 
Q 1022 303 1197 303 
Q 1434 303 1822 616 
z
" transform="scale(0.015625)"/>
      <path id="TimesNewRomanPSMT-70" d="M -6 2578 
L 875 2934 
L 994 2934 
L 994 2266 
Q 1216 2644 1439 2795 
Q 1663 2947 1909 2947 
Q 2341 2947 2628 2609 
Q 2981 2197 2981 1534 
Q 2981 794 2556 309 
Q 2206 -88 1675 -88 
Q 1444 -88 1275 -22 
Q 1150 25 994 166 
L 994 -706 
Q 994 -1000 1030 -1079 
Q 1066 -1159 1155 -1206 
Q 1244 -1253 1478 -1253 
L 1478 -1369 
L -22 -1369 
L -22 -1253 
L 56 -1253 
Q 228 -1256 350 -1188 
Q 409 -1153 442 -1076 
Q 475 -1000 475 -688 
L 475 2019 
Q 475 2297 450 2372 
Q 425 2447 370 2484 
Q 316 2522 222 2522 
Q 147 2522 31 2478 
L -6 2578 
z
M 994 2081 
L 994 1013 
Q 994 666 1022 556 
Q 1066 375 1236 237 
Q 1406 100 1666 100 
Q 1978 100 2172 344 
Q 2425 663 2425 1241 
Q 2425 1897 2138 2250 
Q 1938 2494 1663 2494 
Q 1513 2494 1366 2419 
Q 1253 2363 994 2081 
z
" transform="scale(0.015625)"/>
      <path id="TimesNewRomanPSMT-6c" d="M 1184 4444 
L 1184 647 
Q 1184 378 1223 290 
Q 1263 203 1344 158 
Q 1425 113 1647 113 
L 1647 0 
L 244 0 
L 244 113 
Q 441 113 512 153 
Q 584 194 625 287 
Q 666 381 666 647 
L 666 3247 
Q 666 3731 644 3842 
Q 622 3953 573 3993 
Q 525 4034 450 4034 
Q 369 4034 244 3984 
L 191 4094 
L 1044 4444 
L 1184 4444 
z
" transform="scale(0.015625)"/>
     </defs>
     <use xlink:href="#TimesNewRomanPSMT-4e"/>
     <use xlink:href="#TimesNewRomanPSMT-6f" transform="translate(72.216797 0)"/>
     <use xlink:href="#TimesNewRomanPSMT-69" transform="translate(122.216797 0)"/>
     <use xlink:href="#TimesNewRomanPSMT-73" transform="translate(150 0)"/>
     <use xlink:href="#TimesNewRomanPSMT-79" transform="translate(188.916016 0)"/>
     <use xlink:href="#TimesNewRomanPSMT-20" transform="translate(238.916016 0)"/>
     <use xlink:href="#TimesNewRomanPSMT-73" transform="translate(263.916016 0)"/>
     <use xlink:href="#TimesNewRomanPSMT-69" transform="translate(302.832031 0)"/>
     <use xlink:href="#TimesNewRomanPSMT-6e" transform="translate(330.615234 0)"/>
     <use xlink:href="#TimesNewRomanPSMT-65" transform="translate(380.615234 0)"/>
     <use xlink:href="#TimesNewRomanPSMT-20" transform="translate(425 0)"/>
     <use xlink:href="#TimesNewRomanPSMT-28" transform="translate(450 0)"/>
     <use xlink:href="#TimesNewRomanPSMT-66" transform="translate(483.300781 0)"/>
     <use xlink:href="#TimesNewRomanPSMT-69" transform="translate(516.601562 0)"/>
     <use xlink:href="#TimesNewRomanPSMT-72" transform="translate(544.384766 0)"/>
     <use xlink:href="#TimesNewRomanPSMT-73" transform="translate(577.685547 0)"/>
     <use xlink:href="#TimesNewRomanPSMT-74" transform="translate(616.601562 0)"/>
     <use xlink:href="#TimesNewRomanPSMT-20" transform="translate(644.384766 0)"/>
     <use xlink:href="#TimesNewRomanPSMT-31" transform="translate(669.384766 0)"/>
     <use xlink:href="#TimesNewRomanPSMT-30" transform="translate(719.384766 0)"/>
     <use xlink:href="#TimesNewRomanPSMT-30" transform="translate(769.384766 0)"/>
     <use xlink:href="#TimesNewRomanPSMT-30" transform="translate(819.384766 0)"/>
     <use xlink:href="#TimesNewRomanPSMT-20" transform="translate(869.384766 0)"/>
     <use xlink:href="#TimesNewRomanPSMT-73" transform="translate(894.384766 0)"/>
     <use xlink:href="#TimesNewRomanPSMT-61" transform="translate(933.300781 0)"/>
     <use xlink:href="#TimesNewRomanPSMT-6d" transform="translate(977.685547 0)"/>
     <use xlink:href="#TimesNewRomanPSMT-70" transform="translate(1055.46875 0)"/>
     <use xlink:href="#TimesNewRomanPSMT-6c" transform="translate(1105.46875 0)"/>
     <use xlink:href="#TimesNewRomanPSMT-65" transform="translate(1133.251953 0)"/>
     <use xlink:href="#TimesNewRomanPSMT-73" transform="translate(1177.636719 0)"/>
     <use xlink:href="#TimesNewRomanPSMT-29" transform="translate(1216.552734 0)"/>
    </g>
   </g>
  </g>
 </g>
 <defs>
  <clipPath id="p5c7b6acaa6">
   <rect x="45.421875" y="21.5325" width="659.905" height="150.383125"/>
  </clipPath>
 </defs>
</svg>
